<?xml version="1.0" encoding="UTF-8"?>
<svg id="Layer_1" data-name="Layer 1" xmlns="http://www.w3.org/2000/svg" viewBox="0 0 266.67 260.98">
  <defs>
    <style>
      .cls-1 {
        stroke-width: 6px;
      }

      .cls-1, .cls-2, .cls-3 {
        fill: none;
        stroke: #fff;
        stroke-miterlimit: 10;
      }

      .cls-2 {
        stroke-width: 4px;
      }

      .cls-3 {
        stroke-width: 9px;
      }
    </style>
  </defs>
  <line class="cls-2" x1="10.99" y1="128.54" x2="257.18" y2="128.54"/>
  <line class="cls-2" x1="10.99" y1="199.56" x2="257.18" y2="199.56"/>
  <g>
    <path class="cls-1" d="m21.41,57.15c8.87,0,8.88,7.99,17.75,7.98s8.87-8.01,17.74-8.02,8.88,7.99,17.76,7.98,8.87-8.01,17.74-8.02,8.88,7.99,17.76,7.98,8.87-8.01,17.74-8.02,8.88,7.99,17.76,7.98,8.87-8.01,17.74-8.02,8.88,7.99,17.76,7.98,8.87-8.01,17.74-8.02,8.89,7.99,17.76,7.98,8.87-8.01,17.75-8.02"/>
    <path class="cls-1" d="m21.43,93.76c8.87,0,8.88,7.99,17.75,7.98s8.87-8.01,17.74-8.02,8.88,7.99,17.76,7.98,8.87-8.01,17.74-8.02,8.88,7.99,17.76,7.98,8.87-8.01,17.74-8.02,8.88,7.99,17.76,7.98,8.87-8.01,17.74-8.02,8.88,7.99,17.76,7.98,8.87-8.01,17.74-8.02,8.89,7.99,17.76,7.98,8.87-8.01,17.75-8.02"/>
    <path class="cls-3" d="m19.3,10.34c10.37,0,10.37,12,20.74,12s10.37-12,20.75-12,10.37,12,20.75,12,10.37-12,20.75-12,10.37,12,20.75,12,10.38-12,20.75-12,10.38,12,20.75,12"/>
    <polyline class="cls-3" points="221.39 28.26 238.07 11.53 254.4 28.26"/>
  </g>
  <g>
    <path class="cls-3" d="m21.77,159.82c10.2,0,10.2,12,20.4,12,10.2,0,10.2-12,20.4-12,10.2,0,10.2,12,20.4,12,10.2,0,10.2-12,20.4-12,10.2,0,10.2,12,20.41,12s10.2-12,20.41-12"/>
    <polyline class="cls-3" points="221.39 157.45 238.07 174.18 254.4 157.45"/>
  </g>
  <g>
    <path class="cls-3" d="m23.31,227.77c10.37,0,10.37,12,20.74,12,10.37,0,10.37-12,20.75-12,10.37,0,10.37,12,20.75,12,10.37,0,10.37-12,20.75-12,10.37,0,10.37,12,20.75,12,10.38,0,10.38-12,20.75-12s10.38,12,20.75,12"/>
    <polyline class="cls-3" points="221.39 225.4 238.07 242.13 254.4 225.4"/>
  </g>
</svg>