<?xml version="1.0" encoding="UTF-8"?>
<svg id="Layer_1" data-name="Layer 1" xmlns="http://www.w3.org/2000/svg" viewBox="0 0 59.35 59.12">
  <defs>
    <style>
      .cls-1, .cls-2 {
        fill: #fff;
      }

      .cls-2 {
        stroke: #fff;
        stroke-miterlimit: 10;
      }
    </style>
  </defs>
  <path class="cls-1" d="m29.68,20.52c5.01,0,9.09,4.08,9.09,9.09s-4.08,9.09-9.09,9.09-9.09-4.08-9.09-9.09,4.08-9.09,9.09-9.09m0-12c-11.65,0-21.09,9.44-21.09,21.09s9.44,21.09,21.09,21.09,21.09-9.44,21.09-21.09-9.44-21.09-21.09-21.09h0Z"/>
  <polygon class="cls-2" points="22.53 9.81 36.88 9.81 33.74 .5 25.76 .5 22.53 9.81"/>
  <polygon class="cls-2" points="22.53 49.3 36.88 49.3 33.74 58.62 25.76 58.62 22.53 49.3"/>
  <polygon class="cls-2" points="9.81 36.78 9.81 22.43 .5 25.57 .5 33.55 9.81 36.78"/>
  <polygon class="cls-2" points="10.69 20.99 20.81 10.81 11.99 6.47 6.36 12.13 10.69 20.99"/>
  <polygon class="cls-2" points="10.69 38.34 20.81 48.52 11.99 52.86 6.36 47.2 10.69 38.34"/>
  <polygon class="cls-2" points="49.53 36.78 49.53 22.43 58.85 25.57 58.85 33.55 49.53 36.78"/>
  <polygon class="cls-2" points="48.72 20.93 38.6 10.75 47.42 6.41 53.05 12.07 48.72 20.93"/>
  <polygon class="cls-2" points="48.72 38.28 38.6 48.46 47.42 52.8 53.05 47.14 48.72 38.28"/>
</svg>