<?xml version="1.0" encoding="UTF-8"?>
<svg id="Layer_1" data-name="Layer 1" xmlns="http://www.w3.org/2000/svg" viewBox="0 0 266.67 260.98">
  <defs>
    <style>
      .cls-1 {
        stroke-width: 6px;
      }

      .cls-1, .cls-2 {
        fill: none;
        stroke: #000;
      }

      .cls-1, .cls-2, .cls-3 {
        stroke-miterlimit: 10;
      }

      .cls-2 {
        stroke-width: 5px;
      }

      .cls-3 {
        fill: #fff;
        stroke: #fff;
      }
    </style>
  </defs>
  <circle class="cls-3" cx="26.41" cy="19.36" r="10.33"/>
  <circle class="cls-3" cx="26.41" cy="133.93" r="10.33"/>
  <circle class="cls-3" cx="26.41" cy="235.01" r="10.33"/>
  <path class="cls-1" d="m57.09,232.39c12.51,0,12.51,12,25.03,12s12.51-12,25.03-12,12.51,12,25.03,12,12.51-12,25.03-12,12.52,12,25.03,12,12.52-12,25.03-12"/>
  <path class="cls-2" d="m57.37,18.88c10.93-.01,10.94,7.99,21.86,7.98s10.92-8.01,21.85-8.02,10.94,7.99,21.86,7.98,10.92-8.01,21.85-8.02,10.94,7.99,21.87,7.98,10.92-8.01,21.85-8.02,10.94,7.99,21.87,7.98"/>
  <path class="cls-1" d="m58.02,131.78c9.97-.01,9.98,7.99,19.95,7.98,9.97-.01,9.96-8.01,19.93-8.02s9.98,7.99,19.95,7.98,9.96-8.01,19.94-8.02,9.98,7.99,19.96,7.98,9.97-8.01,19.94-8.02,9.98,7.99,19.96,7.98,9.97-8.01,19.94-8.02,9.98,7.99,19.96,7.98,9.97-8.01,19.94-8.02"/>
</svg>