<?xml version="1.0" encoding="UTF-8"?>
<svg id="Layer_1" data-name="Layer 1" xmlns="http://www.w3.org/2000/svg" viewBox="0 0 266.67 260.98">
  <defs>
    <style>
      .cls-1 {
        fill: none;
        stroke: #fff;
        stroke-miterlimit: 10;
        stroke-width: 6px;
      }
    </style>
  </defs>
  <path class="cls-1" d="m6.24,63.12c20.62,0,20.62,19.92,41.25,19.92s20.6-19.97,41.23-19.97,20.62,19.92,41.25,19.92,20.6-19.97,41.23-19.97,20.62,19.92,41.25,19.92,20.6-19.97,41.23-19.97"/>
  <path class="cls-1" d="m8.13,11.27c20.62,0,20.62,19.92,41.25,19.92s20.6-19.97,41.23-19.97,20.62,19.92,41.25,19.92,20.6-19.97,41.23-19.97,20.62,19.92,41.25,19.92,20.6-19.97,41.23-19.97"/>
  <path class="cls-1" d="m6.15,230.5c20.62,0,20.62,19.92,41.25,19.92s20.6-19.97,41.23-19.97,20.62,19.92,41.25,19.92,20.6-19.97,41.23-19.97,20.62,19.92,41.25,19.92,20.6-19.97,41.23-19.97"/>
  <path class="cls-1" d="m6.15,170.11c20.62,0,20.62,19.92,41.25,19.92s20.6-19.97,41.23-19.97,20.62,19.92,41.25,19.92,20.6-19.97,41.23-19.97,20.62,19.92,41.25,19.92,20.6-19.97,41.23-19.97"/>
  <path class="cls-1" d="m6.24,112.63c20.62,0,20.62,19.92,41.25,19.92s20.6-19.97,41.23-19.97,20.62,19.92,41.25,19.92,20.6-19.97,41.23-19.97,20.62,19.92,41.25,19.92,20.6-19.97,41.23-19.97"/>
</svg>