<?xml version="1.0" encoding="UTF-8"?>
<svg id="Layer_1" data-name="Layer 1" xmlns="http://www.w3.org/2000/svg" viewBox="0 0 266.67 260.98">
  <defs>
    <style>
      .cls-1 {
        fill: #fff;
      }

      .cls-1, .cls-2, .cls-3, .cls-4, .cls-5 {
        stroke-miterlimit: 10;
      }

      .cls-1, .cls-3, .cls-4, .cls-5 {
        stroke: #fff;
      }

      .cls-1, .cls-4 {
        stroke-width: 5px;
      }

      .cls-2 {
        stroke: #000;
      }

      .cls-2, .cls-3 {
        stroke-width: 6px;
      }

      .cls-2, .cls-3, .cls-4, .cls-5 {
        fill: none;
      }

      .cls-5 {
        stroke-width: 9px;
      }
    </style>
  </defs>
  <rect class="cls-4" x="56.57" y="5.07" width="157.87" height="101.14"/>
  <polygon class="cls-1" points="93.11 106.2 144.43 65.69 206.49 106.2 93.11 106.2"/>
  <polyline class="cls-1" points="140.17 106.2 61.86 106.2 104.64 53.17 140.17 106.2"/>
  <ellipse class="cls-1" cx="182.32" cy="32.15" rx="14.53" ry="15.34"/>
  <path class="cls-3" d="m11.38,192.86c10.34,0,10.35,7.99,20.69,7.98s10.33-8.01,20.68-8.02,10.35,7.99,20.69,7.98,10.33-8.01,20.68-8.02,10.35,7.99,20.69,7.98,10.34-8.01,20.68-8.02,10.35,7.99,20.69,7.98,10.34-8.01,20.68-8.02,10.35,7.99,20.69,7.98,10.34-8.01,20.68-8.02,10.35,7.99,20.7,7.98,10.34-8.01,20.69-8.02"/>
  <path class="cls-2" d="m64.16,236.19c11.89,0,11.89,12,23.78,12s11.89-12,23.78-12,11.89,12,23.78,12,11.89-12,23.78-12,11.89,12,23.78,12,11.89-12,23.78-12"/>
  <path class="cls-5" d="m63.04,139.22c11.89,0,11.89,12,23.78,12s11.89-12,23.78-12,11.89,12,23.78,12,11.89-12,23.78-12,11.89,12,23.78,12,11.89-12,23.78-12"/>
</svg>